<?xml version="1.0" standalone="no"?>
<!DOCTYPE svg PUBLIC "-//W3C//DTD SVG 20010904//EN"
 "http://www.w3.org/TR/2001/REC-SVG-20010904/DTD/svg10.dtd">
<svg version="1.0" xmlns="http://www.w3.org/2000/svg"
 width="200.000000pt" height="200.000000pt" viewBox="0 0 200.000000 200.000000"
 preserveAspectRatio="xMidYMid meet">
<metadata>
Created by potrace 1.14, written by Peter Selinger 2001-2017
</metadata>
<g transform="translate(0.000000,200.000000) scale(0.100000,-0.100000)"
fill="#000000" stroke="none">
<path d="M463 1273 c-27 -5 -73 -50 -73 -72 0 -9 -8 -3 -20 16 -10 17 -28 37
-39 42 -29 16 -96 13 -136 -6 l-35 -17 0 -183 0 -183 40 0 40 0 0 87 c0 105
12 102 50 -15 24 -75 26 -77 58 -77 18 -1 35 2 37 5 2 3 -8 43 -21 87 -25 80
-25 81 -7 109 l18 28 6 -80 c7 -89 19 -115 65 -140 63 -34 149 8 160 77 6 35
5 37 -26 44 -34 8 -46 1 -52 -29 -5 -28 -33 -43 -52 -27 -13 11 -16 35 -16
125 0 124 12 161 47 140 10 -6 20 -22 23 -35 6 -23 10 -25 60 -21 44 4 9 95
-45 118 -35 14 -42 15 -82 7z m-161 -99 c16 -35 -4 -74 -37 -74 -24 0 -25 3
-25 54 0 52 1 53 26 48 14 -2 30 -15 36 -28z"/>
<path d="M755 1261 c-11 -5 -36 -6 -55 -3 -29 4 -33 2 -22 -9 6 -7 12 -24 12
-38 0 -21 -2 -23 -10 -11 -8 13 -12 12 -25 -8 -9 -12 -20 -20 -24 -18 -3 3 -8
-4 -10 -15 -5 -35 -6 -154 -1 -174 12 -48 99 -117 162 -129 44 -8 119 13 157
44 21 16 42 26 46 22 5 -4 5 -2 1 5 -7 13 10 50 34 71 8 7 10 11 3 8 -10 -6
-10 39 2 97 2 9 0 15 -5 12 -4 -3 -11 7 -14 21 -10 38 -88 111 -132 123 -45
13 -90 13 -119 2z m-25 -47 c0 -27 -18 -23 -22 6 -4 24 -2 27 9 19 7 -7 13
-17 13 -25z m40 20 c0 -2 -7 -4 -15 -4 -8 0 -15 4 -15 10 0 5 7 7 15 4 8 -4
15 -8 15 -10z m90 -14 c0 -5 -4 -10 -10 -10 -5 0 -10 5 -10 10 0 6 5 10 10 10
6 0 10 -4 10 -10z m-6 -156 c14 -25 23 -51 19 -57 -3 -6 -1 -7 5 -3 13 8 45
-47 34 -59 -4 -5 -2 -5 4 -2 14 8 27 -20 14 -28 -6 -4 -15 -3 -22 1 -7 4 -8 3
-4 -4 4 -8 -3 -16 -19 -22 -29 -11 -115 -14 -115 -4 0 4 14 29 31 57 27 44 29
52 16 62 -11 8 -13 15 -5 29 7 13 7 21 -2 26 -8 5 -10 15 -5 26 5 11 7 23 6
27 -4 20 20 -7 43 -49z m-144 -60 c0 -9 -5 -12 -12 -8 -7 4 -8 3 -4 -4 4 -7 1
-21 -7 -33 -20 -28 -29 -9 -16 31 9 23 9 34 1 39 -6 4 -9 17 -5 29 5 22 6 22
24 -8 11 -17 19 -37 19 -46z m200 31 c0 -5 -5 -3 -10 5 -5 8 -10 20 -10 25 0
6 5 3 10 -5 5 -8 10 -19 10 -25z m-127 8 c4 -3 2 -12 -3 -18 -7 -9 -6 -16 5
-25 12 -10 11 -18 -10 -61 -14 -27 -29 -49 -34 -49 -5 0 -19 8 -31 18 l-23 18
28 45 c15 24 32 46 36 47 5 2 9 10 9 18 0 15 12 19 23 7z m-123 -37 c0 -3 -4
-8 -10 -11 -5 -3 -10 -1 -10 4 0 6 5 11 10 11 6 0 10 -2 10 -4z m309 -47 c-13
-25 -14 -24 -14 10 0 22 3 27 12 19 9 -7 10 -16 2 -29z"/>
<path d="M1416 1182 c-3 -3 -6 -45 -6 -94 0 -88 -12 -116 -24 -57 -3 17 -6 58
-6 90 0 52 -2 59 -20 59 -22 0 -22 -1 -20 -105 1 -38 6 -77 11 -87 14 -26 55
-33 84 -14 24 16 25 21 25 110 0 84 -2 94 -19 99 -11 3 -22 2 -25 -1z"/>
<path d="M1218 1173 c-30 -3 -38 -9 -38 -24 0 -12 7 -19 19 -19 17 0 20 -10
26 -67 3 -38 7 -75 8 -83 1 -8 12 -16 25 -18 23 -3 23 -3 16 88 -7 86 -6 91
12 88 13 -2 19 3 19 17 0 22 -19 25 -87 18z"/>
<path d="M1497 1173 c-3 -5 -6 -53 -8 -108 l-4 -100 60 0 60 0 3 88 c4 105 -8
127 -69 127 -21 0 -40 -3 -42 -7z m64 -45 c0 -7 0 -35 -1 -63 -2 -51 -12 -75
-25 -55 -9 15 5 130 16 130 5 0 9 -6 10 -12z"/>
<path d="M1635 1108 c-13 -132 -12 -153 10 -156 19 -3 22 5 32 100 7 56 9 106
7 110 -3 4 -14 8 -24 8 -15 0 -19 -11 -25 -62z"/>
<path d="M1062 1135 c-25 -32 -19 -58 22 -90 60 -49 58 -47 46 -59 -8 -8 -14
-7 -21 7 -11 19 -34 23 -44 7 -4 -6 1 -22 9 -35 31 -47 106 -25 106 31 0 24
-23 51 -71 86 -18 12 -21 19 -12 28 8 9 14 8 22 -8 7 -14 17 -18 31 -15 25 7
25 14 -1 47 -26 33 -62 34 -87 1z"/>
<path d="M1726 1141 c-10 -11 -22 -51 -29 -90 -9 -64 -9 -73 8 -91 18 -20 60
-26 82 -12 17 11 30 50 38 114 6 49 4 59 -14 77 -26 26 -62 27 -85 2z m53 -58
c-2 -58 -13 -96 -28 -101 -11 -4 -13 7 -7 59 8 68 12 79 27 79 5 0 8 -17 8
-37z"/>
<path d="M540 806 c0 -24 -3 -51 -6 -60 -4 -11 -1 -16 10 -16 9 0 16 8 16 19
0 10 9 21 20 24 39 10 20 77 -22 77 -15 0 -18 -8 -18 -44z m35 4 c3 -5 1 -10
-4 -10 -6 0 -11 5 -11 10 0 6 2 10 4 10 3 0 8 -4 11 -10z"/>
<path d="M642 838 c-14 -14 -16 -76 -3 -96 4 -8 19 -12 32 -10 20 3 24 9 27
46 4 60 -25 91 -56 60z m25 -70 c-2 -13 -4 -5 -4 17 -1 22 1 32 4 23 2 -10 2
-28 0 -40z"/>
<path d="M739 843 c-1 -5 -1 -30 0 -58 2 -54 15 -69 43 -54 26 14 25 94 -1
109 -23 12 -41 13 -42 3z m41 -52 c0 -17 -5 -33 -10 -36 -7 -4 -10 6 -8 29 3
43 18 49 18 7z"/>
<path d="M844 836 c-3 -7 -4 -33 -2 -57 3 -40 6 -44 31 -47 22 -3 27 1 27 17
0 12 -4 21 -10 21 -5 0 -10 -4 -10 -10 0 -5 -5 -10 -10 -10 -6 0 -10 16 -8 35
1 19 6 35 10 35 4 0 8 -4 8 -10 0 -5 5 -10 10 -10 16 0 11 37 -6 44 -24 9 -34
7 -40 -8z"/>
<path d="M956 838 c-13 -41 -24 -103 -20 -107 3 -3 14 0 24 7 11 7 20 8 20 3
0 -5 6 -11 13 -14 12 -4 12 6 3 56 -10 57 -31 85 -40 55z"/>
<path d="M1040 830 c-10 -18 -8 -26 11 -46 12 -13 19 -27 16 -31 -4 -3 -7 -1
-7 5 0 7 -7 12 -16 12 -9 0 -14 -5 -12 -12 6 -18 34 -32 52 -25 22 9 20 44 -4
57 -11 6 -20 16 -20 22 0 7 5 6 15 -2 20 -17 32 -4 19 18 -16 25 -41 26 -54 2z"/>
<path d="M1134 839 c-4 -7 -2 -15 4 -17 7 -2 12 -23 12 -48 0 -24 5 -44 10
-44 10 0 12 9 13 63 1 16 7 27 15 27 7 0 12 6 10 13 -6 16 -54 21 -64 6z"/>
</g>
</svg>
