<?xml version="1.0" standalone="no"?>
<!DOCTYPE svg PUBLIC "-//W3C//DTD SVG 20010904//EN"
 "http://www.w3.org/TR/2001/REC-SVG-20010904/DTD/svg10.dtd">
<svg version="1.0" xmlns="http://www.w3.org/2000/svg"
 width="200.000000pt" height="200.000000pt" viewBox="0 0 200.000000 200.000000"
 preserveAspectRatio="xMidYMid meet">
<metadata>
Created by potrace 1.14, written by Peter Selinger 2001-2017
</metadata>
<g transform="translate(0.000000,200.000000) scale(0.100000,-0.100000)"
fill="#000000" stroke="none">
<path d="M200 1247 l-35 -22 0 -175 1 -175 28 -3 c16 -2 32 1 36 8 4 6 6 44 5
85 -1 63 2 75 15 75 11 0 20 -16 29 -52 25 -99 37 -118 70 -118 38 0 38 6 6
100 l-25 74 21 22 c12 13 25 38 30 56 8 32 8 32 8 -12 -2 -170 0 -180 30 -211
25 -24 38 -29 79 -29 39 0 54 5 75 25 26 27 41 74 27 88 -10 12 -65 4 -63 -8
3 -25 -19 -46 -45 -43 l-27 3 0 135 0 135 28 3 c23 3 29 -2 38 -27 9 -24 17
-31 38 -31 37 0 41 6 30 43 -22 79 -122 105 -180 48 -17 -18 -29 -41 -30 -58
l-1 -28 -9 32 c-22 75 -109 105 -179 60z m95 -53 c24 -24 16 -76 -14 -90 -37
-19 -47 -9 -45 44 1 26 2 50 3 55 2 13 39 7 56 -9z"/>
<path d="M770 1260 c-22 -7 -21 -8 13 -9 23 -1 36 3 32 9 -7 11 -10 11 -45 0z"/>
<path d="M830 1259 c0 -5 10 -9 23 -10 21 -1 21 -1 -3 -8 -14 -4 -37 -7 -52
-6 -31 2 -37 -9 -12 -19 22 -9 26 -8 18 6 -4 7 -3 8 5 4 6 -4 8 -12 5 -18 -5
-7 -2 -8 7 -3 11 6 12 5 2 -6 -10 -10 -16 -10 -25 -1 -17 17 -35 15 -42 -4 -4
-12 -1 -14 14 -9 22 7 28 -10 8 -19 -9 -3 -7 -9 6 -20 24 -19 8 -21 -16 -2
-10 7 -15 16 -11 19 3 4 -1 7 -10 7 -12 0 -14 -7 -11 -27 6 -32 14 -44 14 -20
0 21 7 21 28 0 16 -16 16 -16 0 -10 -10 3 -20 2 -23 -3 -4 -6 -2 -10 2 -10 5
0 16 -16 24 -34 12 -26 13 -38 5 -46 -8 -8 -6 -14 6 -21 16 -9 15 -14 -10 -59
-28 -51 -39 -57 -73 -40 -27 15 -25 25 22 101 36 61 45 100 18 83 -5 -3 -16 0
-24 6 -8 7 -21 10 -28 7 -11 -4 -13 2 -11 24 2 16 -1 29 -7 29 -6 0 -7 -4 -4
-10 3 -5 -2 -10 -12 -11 -16 0 -16 -1 2 -8 20 -8 20 -8 -2 -15 -17 -6 -21 -14
-20 -44 1 -20 6 -40 11 -43 4 -4 4 -15 -2 -25 -10 -18 -11 -18 -17 -1 -4 9 -5
27 -2 38 3 12 2 32 -3 45 -6 15 -6 24 0 24 6 0 10 12 10 26 0 14 4 23 10 19 6
-3 11 -1 11 4 3 21 4 26 13 39 4 7 6 16 3 19 -11 11 -57 -75 -63 -119 -12 -87
37 -171 123 -210 44 -19 129 -23 140 -5 3 5 -11 6 -35 2 -23 -4 -50 -4 -62 0
-20 6 -20 8 11 61 25 45 29 57 18 70 -9 11 -9 18 -1 26 16 16 15 28 -2 28 -11
0 -12 7 -4 35 6 19 15 32 20 29 4 -3 8 0 8 6 0 6 5 8 11 4 8 -5 8 -9 -1 -14
-7 -5 7 -36 46 -100 l57 -94 -29 -23 c-40 -31 -19 -29 23 3 59 45 87 128 70
206 -10 47 -27 69 -99 126 -22 18 -78 33 -78 21z m70 -24 c0 -2 -13 -11 -30
-20 -19 -10 -27 -20 -24 -30 4 -8 2 -15 -3 -15 -4 0 -9 13 -9 29 -1 23 3 31
20 34 34 7 46 7 46 2z m50 -43 c3 -3 -5 -2 -17 1 -13 3 -23 0 -23 -5 0 -7 -5
-6 -14 1 -11 9 -15 7 -19 -9 -3 -11 -1 -20 4 -20 5 0 9 4 9 8 0 23 85 0 94
-25 4 -9 1 -23 -6 -31 -11 -13 -10 -15 2 -10 11 4 15 -3 16 -26 1 -28 -9 -45
-28 -46 -5 0 -8 5 -8 10 0 6 7 10 15 10 12 0 13 4 3 25 -9 19 -14 22 -25 14
-9 -9 -13 -8 -13 0 0 6 -5 11 -11 11 -5 0 -7 -4 -4 -10 3 -5 1 -10 -4 -10 -6
0 -11 5 -11 10 0 6 -4 10 -9 10 -4 0 -6 -11 -3 -25 2 -14 9 -25 14 -25 5 0 6
5 3 10 -4 6 7 10 27 9 24 0 28 -2 15 -8 -10 -4 -19 -11 -20 -16 -1 -6 -5 -9
-9 -8 -4 2 -5 -3 -2 -11 3 -8 1 -17 -5 -21 -6 -3 -11 1 -11 10 0 8 -6 18 -14
21 -8 3 -12 14 -9 27 4 18 3 20 -7 7 -10 -13 -11 -13 -6 2 3 11 -2 21 -12 27
-9 5 -13 13 -9 17 5 5 12 2 16 -5 6 -10 10 -10 16 -1 4 7 -1 13 -14 17 -12 3
-21 9 -21 14 0 5 -17 9 -37 9 -34 0 -36 1 -21 16 13 13 19 14 37 2 18 -11 23
-11 31 2 5 8 6 18 4 22 -9 14 40 26 61 15 11 -5 22 -12 25 -15z m-230 -128 c0
-8 5 -14 11 -14 5 0 7 5 4 10 -3 6 -1 10 4 10 6 0 11 -3 11 -6 0 -12 -71 -124
-79 -124 -17 0 -19 14 -6 46 8 20 10 36 5 39 -11 7 -9 55 2 55 4 0 15 -14 23
-30 9 -17 21 -28 26 -24 8 4 8 9 0 13 -6 4 -13 17 -16 30 -2 12 0 19 6 16 5
-4 9 -13 9 -21z m272 -56 c-7 -7 -12 -8 -12 -2 0 14 12 26 19 19 2 -3 -1 -11
-7 -17z m-12 -34 c0 -6 -6 -17 -14 -23 -11 -9 -14 -4 -14 31 -1 40 0 41 14 24
8 -11 14 -25 14 -32z m-40 -5 c0 -6 -4 -7 -10 -4 -5 3 -10 11 -10 16 0 6 5 7
10 4 6 -3 10 -11 10 -16z"/>
<path d="M860 1148 c0 -4 9 -8 21 -8 11 0 18 -4 15 -9 -3 -5 1 -14 8 -20 9 -7
17 -8 20 -2 3 5 15 7 25 4 10 -3 22 1 26 8 6 9 2 11 -13 7 -23 -6 -31 7 -9 15
6 3 -1 6 -18 7 -16 1 -40 3 -52 4 -13 2 -23 -1 -23 -6z m70 -18 c0 -5 -2 -10
-4 -10 -3 0 -8 5 -11 10 -3 6 -1 10 4 10 6 0 11 -4 11 -10z"/>
<path d="M680 1254 c0 -3 5 -15 11 -26 9 -16 8 -24 -5 -36 -13 -14 -13 -17 0
-26 8 -7 16 -19 17 -27 3 -16 30 -49 41 -49 3 0 -3 15 -14 34 -16 30 -17 36
-4 46 8 7 14 19 14 26 0 8 5 14 10 14 6 0 10 5 10 12 0 6 -3 8 -7 5 -3 -4 -12
2 -20 13 -13 18 -53 29 -53 14z m45 -23 c6 -21 -3 -51 -17 -51 -5 0 -6 9 -3
20 4 12 1 27 -5 35 -10 12 -9 15 3 15 9 0 18 -8 22 -19z"/>
<path d="M1340 1100 c0 -86 8 -113 40 -130 25 -14 67 5 73 34 3 11 4 55 3 96
-1 62 -4 75 -19 78 -19 4 -20 0 -18 -100 2 -64 -10 -91 -29 -72 -5 5 -10 45
-12 89 -2 67 -6 80 -20 83 -16 3 -18 -6 -18 -78z"/>
<path d="M1499 1176 c-6 -9 -8 -206 -2 -207 87 -10 102 3 109 97 5 58 3 74
-11 87 -9 10 -22 17 -28 18 -7 1 -24 2 -39 3 -16 2 -28 2 -29 2z m66 -106 c0
-54 -3 -65 -18 -68 -15 -3 -17 5 -16 68 1 60 4 70 18 68 13 -3 16 -16 16 -68z"/>
<path d="M1189 1159 c-15 -9 -1 -32 17 -25 14 5 18 -11 29 -113 6 -62 8 -66
29 -58 15 6 15 28 1 140 -5 32 -3 37 15 37 11 0 20 7 20 15 0 13 -11 16 -50
14 -27 -2 -55 -6 -61 -10z"/>
<path d="M1648 1163 c-3 -4 -5 -24 -7 -44 -1 -19 -6 -61 -10 -93 -6 -46 -5
-59 6 -63 8 -3 18 -2 23 3 14 14 17 196 3 201 -6 2 -13 0 -15 -4z"/>
<path d="M1083 1149 c-49 -18 -40 -78 18 -115 39 -24 52 -54 24 -54 -7 0 -18
7 -23 16 -7 12 -14 14 -27 7 -15 -9 -15 -12 7 -37 19 -22 28 -26 51 -21 61 16
56 88 -9 118 -22 11 -34 24 -34 37 0 23 25 27 34 5 7 -18 36 -20 36 -2 0 34
-42 59 -77 46z"/>
<path d="M1738 1146 c-18 -9 -25 -25 -35 -79 -8 -42 -9 -76 -3 -91 17 -46 94
-41 105 7 21 87 23 123 10 143 -17 27 -47 35 -77 20z m46 -51 c-6 -72 -17
-115 -29 -115 -23 0 -25 14 -14 79 9 49 15 61 28 59 9 -2 15 -13 15 -23z"/>
<path d="M650 835 c-17 -20 -19 -73 -4 -93 16 -22 47 -5 52 28 8 53 -23 95
-48 65z m30 -51 c0 -23 -4 -34 -12 -32 -6 2 -11 19 -11 36 2 44 2 44 13 37 6
-3 10 -22 10 -41z"/>
<path d="M540 791 c0 -28 5 -53 10 -56 6 -4 10 5 10 19 0 16 6 26 14 26 8 0
16 7 20 15 9 25 -4 45 -30 45 -22 0 -24 -4 -24 -49z m32 7 c-9 -9 -12 -7 -12
12 0 19 3 21 12 12 9 -9 9 -15 0 -24z"/>
<path d="M740 785 c0 -51 2 -55 24 -55 25 0 36 16 36 55 0 39 -11 55 -36 55
-22 0 -24 -4 -24 -55z m40 0 c0 -19 -4 -35 -10 -35 -5 0 -10 16 -10 35 0 19 5
35 10 35 6 0 10 -16 10 -35z"/>
<path d="M847 834 c-9 -9 -9 -66 -1 -88 7 -18 39 -21 50 -5 3 6 1 16 -5 22 -8
8 -11 8 -11 -1 0 -7 -4 -12 -10 -12 -5 0 -10 16 -10 36 0 31 2 35 21 29 15 -5
20 -3 17 6 -5 15 -40 24 -51 13z"/>
<path d="M956 823 c-3 -10 -8 -36 -12 -58 -5 -33 -4 -38 7 -27 15 14 43 16 34
2 -3 -5 -1 -10 6 -10 8 0 9 12 5 38 -10 55 -16 72 -26 72 -5 0 -11 -8 -14 -17z
m24 -38 c0 -8 -4 -15 -10 -15 -5 0 -7 7 -4 15 4 8 8 15 10 15 2 0 4 -7 4 -15z"/>
<path d="M1040 817 c0 -12 9 -28 20 -35 24 -15 26 -32 4 -32 -8 0 -12 5 -9 10
3 6 1 10 -4 10 -17 0 -13 -30 5 -37 8 -3 23 2 32 10 15 15 14 18 -6 40 -23 25
-33 62 -10 39 17 -17 33 -15 18 3 -20 24 -50 19 -50 -8z"/>
<path d="M1138 833 c7 -3 12 -23 12 -48 0 -24 5 -47 10 -50 6 -4 10 13 10 45
0 32 4 49 10 45 6 -3 10 -1 10 4 0 6 -15 11 -32 10 -18 0 -27 -3 -20 -6z"/>
</g>
</svg>
